<?xml version="1.0" encoding="UTF-8" standalone="no"?>
<svg
   xmlns:dc="http://purl.org/dc/elements/1.1/"
   xmlns:cc="http://creativecommons.org/ns#"
   xmlns:rdf="http://www.w3.org/1999/02/22-rdf-syntax-ns#"
   xmlns:svg="http://www.w3.org/2000/svg"
   xmlns="http://www.w3.org/2000/svg"
   xmlns:sodipodi="http://sodipodi.sourceforge.net/DTD/sodipodi-0.dtd"
   xmlns:inkscape="http://www.inkscape.org/namespaces/inkscape"
   width="1280"
   height="720"
   preserveAspectRatio="xMidYMid meet"
   viewBox="0 0 1280 720"
   version="1.1"
   id="svg871"
   sodipodi:docname="irisAspect2.svg"
   inkscape:version="0.92.3 (2405546, 2018-03-11)">
  <metadata
     id="metadata877">
    <rdf:RDF>
      <cc:Work
         rdf:about="">
        <dc:format>image/svg+xml</dc:format>
        <dc:type
           rdf:resource="http://purl.org/dc/dcmitype/StillImage" />
        <dc:title></dc:title>
      </cc:Work>
    </rdf:RDF>
  </metadata>
  <defs
     id="defs875" />
  <sodipodi:namedview
     pagecolor="#ffffff"
     bordercolor="#666666"
     borderopacity="1"
     objecttolerance="10"
     gridtolerance="10"
     guidetolerance="10"
     inkscape:pageopacity="0"
     inkscape:pageshadow="2"
     inkscape:window-width="1613"
     inkscape:window-height="995"
     id="namedview873"
     showgrid="false"
     inkscape:zoom="0.35999838"
     inkscape:cx="136.46235"
     inkscape:cy="18.661705"
     inkscape:window-x="67"
     inkscape:window-y="27"
     inkscape:window-maximized="1"
     inkscape:current-layer="svg871" />
  <path
     d="M 699.9482,463.95434 564.80741,698.19827 A 345.96049,345.96049 0 0 0 858.99859,628.54828 L 732.17413,408.51171 m -422.74816,55.44263 c 31.87938,101.18207 109.15222,182.2664 207.5624,219.6902 L 644.15936,463.95434 M 520.10702,359.99925 384.96622,126.10169 a 341.49044,341.49044 0 0 0 -91.47993,233.89756 c 0,23.56349 2.42563,46.77993 6.93029,69.30294 H 559.95624 M 979.5857,290.69632 H 720.04606 l 10.04902,17.32609 164.94106,285.87441 A 344.0893,344.0893 0 0 0 986.516,359.99925 c 0,-23.90917 -2.4259,-47.1256 -6.9301,-69.30293 m -9.0095,-34.65147 C 938.697,154.51641 861.42419,73.778452 763.01401,36.354655 L 635.84297,256.04485 M 549.90731,308.02241 715.19489,21.800923 C 690.93886,16.605381 665.98975,13.48459 640.0012,13.48459 c -83.1636,0 -159.39686,29.107494 -218.99741,77.965628 L 547.8282,311.48748 Z"
     id="path867"
     inkscape:connector-curvature="0"
     style="fill:#626262;stroke-width:34.65148926" />
</svg>
